<?xml version="1.0" encoding="UTF-8" standalone="no"?>
<!-- Created with Inkscape (http://www.inkscape.org/) -->

<svg
   width="210mm"
   height="297mm"
   viewBox="0 0 210 297"
   version="1.1"
   id="svg2091"
   xmlns="http://www.w3.org/2000/svg"
   xmlns:svg="http://www.w3.org/2000/svg"
   xmlns:rdf="http://www.w3.org/1999/02/22-rdf-syntax-ns#"
   xmlns:cc="http://creativecommons.org/ns#"
   xmlns:dc="http://purl.org/dc/elements/1.1/">
  <defs
     id="defs2086">
    <clipPath
       clipPathUnits="userSpaceOnUse"
       id="clipPath160">
      <path
         d="m 563.393,426.148 c 0,-46.945 38.055,-85.001 84.998,-85.001 v 0 c 46.946,0 85.002,38.056 85.002,85.001 v 0 c 0,46.944 -38.056,85.001 -85.002,85.001 v 0 c -46.943,0 -84.998,-38.057 -84.998,-85.001"
         id="path158" />
    </clipPath>
  </defs>
  <metadata
     id="metadata2089">
    <rdf:RDF>
      <cc:Work
         rdf:about="">
        <dc:format>image/svg+xml</dc:format>
        <dc:type
           rdf:resource="http://purl.org/dc/dcmitype/StillImage" />
      </cc:Work>
    </rdf:RDF>
  </metadata>
  <g
     id="g346"
     transform="matrix(1.4150089,0,0,-1.4128901,-288.38385,1174.172)">
    <path
       d="m 208.39086,154.96988 c 0,-56.222026 -45.57954,-101.801581 -101.80276,-101.801581 -56.224445,0 -101.8003996,45.579555 -101.8003996,101.801581 0,56.22442 45.5759546,101.804 101.8003996,101.804 56.22322,0 101.80276,-45.57958 101.80276,-101.804"
       style="fill:#0a6e90;fill-opacity:1;fill-rule:nonzero;stroke:none;stroke-width:1.19767"
       id="path128"
       transform="matrix(0.70670934,0,0,-0.70776914,203.80356,831.0427)" />
    <g
       id="g154"
       transform="matrix(0.73620517,0,0,0.80580267,-197.68487,376.56873)">
      <g
         id="g156"
         clip-path="url(#clipPath160)">
        <g
           id="g162"
           transform="translate(646.8232,401.9126)">
          <path
             d="M 0,0 C -28.116,0 -50.913,-27.206 -50.913,-60.766 H 50.917 C 50.917,-27.206 28.122,0 0,0"
             style="fill:#fbbdb0;fill-opacity:1;fill-rule:nonzero;stroke:none"
             id="path164" />
        </g>
        <g
           id="g166"
           transform="translate(572.6836,459.7085)">
          <path
             d="m 0,0 c 0,0 27.713,12.556 36.865,-1.722 9.152,-14.278 12.222,-19.07 12.222,-19.07 0,0 -29.547,-9.69 -38.7,4.587 C 1.235,-1.925 0,0 0,0"
             style="fill:#fbbdb0;fill-opacity:1;fill-rule:nonzero;stroke:none"
             id="path168" />
        </g>
        <g
           id="g170"
           transform="translate(581.3809,456.0215)">
          <path
             d="m 0,0 c 0,0 17.893,8.108 23.802,-1.109 5.908,-9.219 7.89,-12.314 7.89,-12.314 0,0 -19.079,-6.254 -24.987,2.964 C 0.798,-1.243 0,0 0,0"
             style="fill:#d76c79;fill-opacity:1;fill-rule:nonzero;stroke:none"
             id="path172" />
        </g>
        <g
           id="g174"
           transform="translate(724.1025,457.0786)">
          <path
             d="m 0,0 c 0,0 -26.888,14.229 -36.897,0.538 -10.011,-13.697 -13.37,-18.291 -13.37,-18.291 0,0 28.902,-11.476 38.912,2.215 C -1.35,-1.848 0,0 0,0"
             style="fill:#fbbdb0;fill-opacity:1;fill-rule:nonzero;stroke:none"
             id="path176" />
        </g>
        <g
           id="g178"
           transform="translate(715.1982,453.9316)">
          <path
             d="m 0,0 c 0,0 -17.363,9.186 -23.824,0.346 -6.461,-8.837 -8.631,-11.807 -8.631,-11.807 0,0 18.662,-7.409 25.123,1.431 C -0.873,-1.193 0,0 0,0"
             style="fill:#d76c79;fill-opacity:1;fill-rule:nonzero;stroke:none"
             id="path180" />
        </g>
        <g
           id="g182"
           transform="translate(685.0752,436.292)">
          <path
             d="m 0,0 c 0.197,1.167 0.336,2.348 0.336,3.553 0,15.631 -17.275,28.299 -38.589,28.299 -21.31,0 -38.584,-12.668 -38.584,-28.299 0,-1.205 0.134,-2.386 0.334,-3.553 -4.533,-5.247 -7.195,-11.471 -7.195,-18.168 0,-18.627 20.347,-33.728 45.445,-33.728 25.099,0 45.448,15.101 45.448,33.728 C 7.195,-11.471 4.535,-5.247 0,0"
             style="fill:#fbbdb0;fill-opacity:1;fill-rule:nonzero;stroke:none"
             id="path184" />
        </g>
        <g
           id="g186"
           transform="translate(668.8633,439.0439)">
          <path
             d="M 0,0 C 0,0 -11.338,3.288 -11.082,-8.244 -11.082,-8.244 0,-12.269 0,0"
             style="fill:#ffffff;fill-opacity:1;fill-rule:nonzero;stroke:none"
             id="path188" />
        </g>
        <g
           id="g190"
           transform="translate(659.6006,435.4673)">
          <path
             d="m 0,0 c 0,-1.516 1.229,-2.749 2.75,-2.749 1.516,0 2.748,1.233 2.748,2.749 0,1.521 -1.232,2.752 -2.748,2.752 C 1.229,2.752 0,1.521 0,0"
             style="fill:#191009;fill-opacity:1;fill-rule:nonzero;stroke:none"
             id="path192" />
        </g>
        <g
           id="g194"
           transform="translate(661.0596,435.7236)">
          <path
             d="m 0,0 c 0,-0.358 0.288,-0.646 0.644,-0.646 0.359,0 0.644,0.288 0.644,0.646 0,0.356 -0.285,0.646 -0.644,0.646 C 0.288,0.646 0,0.356 0,0"
             style="fill:#ffffff;fill-opacity:1;fill-rule:nonzero;stroke:none"
             id="path196" />
        </g>
        <g
           id="g198"
           transform="translate(624.7871,439.0439)">
          <path
             d="M 0,0 C 0,0 11.341,3.288 11.084,-8.244 11.084,-8.244 0,-12.269 0,0"
             style="fill:#ffffff;fill-opacity:1;fill-rule:nonzero;stroke:none"
             id="path200" />
        </g>
        <g
           id="g202"
           transform="translate(634.0518,435.4673)">
          <path
             d="m 0,0 c 0,-1.516 -1.229,-2.749 -2.749,-2.749 -1.521,0 -2.75,1.233 -2.75,2.749 0,1.521 1.229,2.752 2.75,2.752 C -1.229,2.752 0,1.521 0,0"
             style="fill:#191009;fill-opacity:1;fill-rule:nonzero;stroke:none"
             id="path204" />
        </g>
        <g
           id="g206"
           transform="translate(632.5918,435.7236)">
          <path
             d="m 0,0 c 0,-0.358 -0.289,-0.646 -0.646,-0.646 -0.352,0 -0.643,0.288 -0.643,0.646 0,0.356 0.291,0.646 0.643,0.646 C -0.289,0.646 0,0.356 0,0"
             style="fill:#ffffff;fill-opacity:1;fill-rule:nonzero;stroke:none"
             id="path208" />
        </g>
        <g
           id="g210"
           transform="translate(646.8232,402.6162)">
          <path
             d="m 0,0 c -8.121,0 -14.487,4.197 -14.487,9.555 0,5.357 6.366,9.552 14.487,9.552 8.125,0 14.489,-4.195 14.489,-9.552 C 14.489,4.197 8.125,0 0,0"
             style="fill:#d76c79;fill-opacity:1;fill-rule:nonzero;stroke:none"
             id="path212" />
        </g>
        <g
           id="g214"
           transform="translate(643.3174,412.7593)">
          <path
             d="m 0,0 c 0,-1.505 -1.223,-2.726 -2.728,-2.726 -1.505,0 -2.725,1.221 -2.725,2.726 0,1.507 1.22,2.728 2.725,2.728 C -1.223,2.728 0,1.507 0,0"
             style="fill:#3c3c3b;fill-opacity:1;fill-rule:nonzero;stroke:none"
             id="path216" />
        </g>
        <g
           id="g218"
           transform="translate(655.2188,412.7593)">
          <path
             d="m 0,0 c 0,-1.505 -1.222,-2.726 -2.729,-2.726 -1.505,0 -2.723,1.221 -2.723,2.726 0,1.507 1.218,2.728 2.723,2.728 C -1.222,2.728 0,1.507 0,0"
             style="fill:#3c3c3b;fill-opacity:1;fill-rule:nonzero;stroke:none"
             id="path220" />
        </g>
        <g
           id="g222"
           transform="translate(646.6934,406.1118)">
          <path
             d="m 0,0 c 0,0 -5.211,2.483 -10.176,0 -4.966,-2.482 -9.559,-6.828 -12.417,-0.868 0,0 -0.123,-9.312 11.3,-8.195 C 0.125,-7.946 0.499,-1.489 0,0"
             style="fill:#26232c;fill-opacity:1;fill-rule:nonzero;stroke:none"
             id="path224" />
        </g>
        <g
           id="g226"
           transform="translate(646.9541,406.1118)">
          <path
             d="m 0,0 c 0,0 5.212,2.483 10.18,0 4.964,-2.482 9.558,-6.828 12.414,-0.868 0,0 0.124,-9.312 -11.3,-8.195 C -0.125,-7.946 -0.498,-1.489 0,0"
             style="fill:#26232c;fill-opacity:1;fill-rule:nonzero;stroke:none"
             id="path228" />
        </g>
        <g
           id="g230"
           transform="translate(661.7529,387.625)">
          <path
             d="m 0,0 c -2.064,0.686 -12.36,-5.234 -12.36,-5.234 -0.628,0.671 -1.537,1.095 -2.551,1.095 -1.015,0 -1.923,-0.424 -2.549,-1.095 0,0 -10.314,6.244 -12.275,5.091 -1.96,-1.15 -2.032,-13.353 0,-14.558 2.031,-1.203 12.467,4.902 12.467,4.902 0.613,-0.56 1.443,-0.906 2.357,-0.906 0.915,0 1.744,0.346 2.356,0.906 0,0 10.783,-6.332 12.467,-4.902 C 1.598,-13.27 2.068,-0.686 0,0"
             style="fill:#000000;fill-opacity:1;fill-rule:nonzero;stroke:none"
             id="path232" />
        </g>
        <g
           id="g234"
           transform="translate(678.6563,442.6733)">
          <path
             d="m 0,0 c -0.736,0 -1.332,0.148 -1.332,0.33 0,0.181 0.596,0.328 1.332,0.328 0.736,0 1.332,-0.147 1.332,-0.328 C 1.332,0.148 0.736,0 0,0 m -2.3,-6.466 c -0.062,-2.401 -0.466,-4.746 -1.32,-7 -0.35,-0.912 -0.817,-1.754 -1.525,-2.439 -0.786,-0.766 -1.767,-1.17 -2.81,-1.453 -1.307,-0.354 -2.648,-0.439 -3.995,-0.45 -2.035,-0.02 -4.041,0.234 -6.029,0.658 -1.97,0.419 -3.542,1.449 -4.791,3.01 -1.604,2.003 -2.628,4.276 -3.203,6.765 -0.265,1.148 -0.49,2.304 -0.461,3.492 0.012,0.51 0.064,1.026 0.16,1.529 0.228,1.254 0.998,2.072 2.156,2.544 1.167,0.471 2.384,0.758 3.613,1.003 1.369,0.271 2.747,0.474 4.14,0.563 1.088,0.07 2.177,0.101 2.912,0.133 2.916,-0.144 5.463,-0.357 7.941,-1.065 0.458,-0.129 0.894,-0.337 1.321,-0.539 0.409,-0.191 0.724,-0.505 0.928,-0.91 0.223,-0.448 0.45,-0.896 0.629,-1.362 0.208,-0.548 0.255,-1.134 0.276,-1.715 0.036,-0.922 0.083,-1.843 0.058,-2.764 m -35.644,-0.739 c -0.468,-1.987 -1.238,-3.851 -2.269,-5.612 -0.562,-0.963 -1.202,-1.863 -2.015,-2.635 -1.068,-1.021 -2.353,-1.623 -3.768,-1.994 -2.861,-0.748 -5.754,-0.934 -8.68,-0.496 -0.575,0.086 -1.141,0.236 -1.702,0.379 -1.165,0.299 -2.045,0.975 -2.714,1.974 -0.741,1.103 -1.198,2.317 -1.502,3.598 -0.4,1.673 -0.621,3.373 -0.791,5.082 -0.1,0.992 -0.079,1.98 0.041,2.967 0.064,0.496 0.104,0.999 0.214,1.485 0.4,1.728 1.466,2.828 3.187,3.279 1.567,0.41 3.166,0.653 4.782,0.784 1.194,0.098 2.396,0.148 3.169,0.193 2.756,-0.034 5.069,-0.21 7.344,-0.734 0.929,-0.213 1.873,-0.405 2.722,-0.858 0.417,-0.223 0.823,-0.487 1.191,-0.789 0.6,-0.496 0.907,-1.173 1.038,-1.939 0.266,-1.581 0.113,-3.137 -0.247,-4.684 M -63.705,0 c -0.736,0 -1.334,0.148 -1.334,0.33 0,0.181 0.598,0.328 1.334,0.328 0.736,0 1.332,-0.147 1.332,-0.328 0,-0.182 -0.596,-0.33 -1.332,-0.33 M 2.832,2.156 C 2.817,2.378 2.714,2.517 2.5,2.572 2.349,2.61 2.199,2.653 2.048,2.677 -0.12,3.017 -2.29,3.349 -4.479,3.501 -6.23,3.623 -7.979,3.7 -9.732,3.779 -13.107,3.93 -16.474,3.856 -19.829,3.433 -21.878,3.172 -23.908,2.802 -25.876,2.165 -26.874,1.842 -27.854,1.466 -28.85,1.151 c -1.559,-0.493 -3.153,-0.715 -4.77,-0.413 -0.97,0.182 -1.93,0.461 -2.871,0.765 -1.704,0.552 -3.408,1.095 -5.176,1.421 -3.437,0.634 -6.899,0.926 -10.129,0.89 -2.633,-0.003 -4.996,-0.093 -7.352,-0.376 -1.928,-0.23 -3.856,-0.488 -5.788,-0.751 -0.408,-0.056 -0.809,-0.176 -1.21,-0.282 -0.214,-0.057 -0.356,-0.2 -0.362,-0.438 -0.041,-1.139 -0.078,-2.277 -0.108,-3.417 -0.001,-0.172 0.04,-0.345 0.067,-0.515 0.02,-0.145 0.1,-0.246 0.236,-0.307 0.149,-0.064 0.301,-0.128 0.431,-0.219 0.635,-0.44 0.941,-1.109 1.181,-1.801 0.173,-0.497 0.285,-1.012 0.427,-1.517 0.089,-0.315 0.209,-0.623 0.28,-0.941 0.334,-1.486 0.644,-2.98 0.986,-4.465 0.327,-1.415 0.752,-2.801 1.429,-4.097 0.758,-1.448 1.836,-2.556 3.367,-3.194 0.928,-0.386 1.893,-0.632 2.879,-0.788 1.77,-0.28 3.554,-0.315 5.341,-0.185 1.807,0.13 3.592,0.404 5.336,0.931 1.29,0.391 2.51,0.936 3.549,1.818 1.582,1.35 2.855,2.95 3.835,4.789 0.98,1.836 1.661,3.787 2.278,5.766 0.179,0.567 0.346,1.138 0.548,1.696 0.306,0.82 0.892,1.33 1.769,1.464 0.281,0.044 0.571,0.055 0.853,0.038 0.656,-0.038 1.29,-0.178 1.727,-0.725 0.192,-0.239 0.368,-0.504 0.493,-0.783 0.238,-0.543 0.465,-1.097 0.644,-1.663 0.772,-2.445 1.798,-4.773 3.091,-6.988 1.077,-1.84 2.495,-3.324 4.373,-4.35 1.329,-0.725 2.751,-1.186 4.231,-1.475 2.225,-0.433 4.477,-0.538 6.737,-0.438 1.366,0.059 2.715,0.232 4.03,0.625 1.349,0.404 2.535,1.062 3.42,2.187 0.574,0.728 1,1.538 1.349,2.389 0.738,1.796 1.209,3.668 1.638,5.557 0.209,0.923 0.426,1.846 0.654,2.766 0.115,0.48 0.263,0.953 0.397,1.43 0.123,0.446 0.231,0.899 0.516,1.285 0.281,0.388 0.572,0.769 1.047,0.937 0.205,0.075 0.309,0.218 0.356,0.413 0.033,0.153 0.07,0.308 0.07,0.459 0,0.682 0,1.363 -0.018,2.043 -0.017,0.49 -0.067,0.976 -0.099,1.464"
             style="fill:#000000;fill-opacity:1;fill-rule:nonzero;stroke:none"
             id="path236" />
        </g>
      </g>
    </g>
  </g>
</svg>
