<?xml version="1.0" encoding="UTF-8" standalone="no"?>
<!-- Created with Inkscape (http://www.inkscape.org/) -->

<svg
   width="210mm"
   height="297mm"
   viewBox="0 0 210 297"
   version="1.1"
   id="svg2091"
   inkscape:export-filename="bitmap.svg"
   inkscape:export-xdpi="96.036186"
   inkscape:export-ydpi="96.036186"
   xmlns:inkscape="http://www.inkscape.org/namespaces/inkscape"
   xmlns:sodipodi="http://sodipodi.sourceforge.net/DTD/sodipodi-0.dtd"
   xmlns="http://www.w3.org/2000/svg"
   xmlns:svg="http://www.w3.org/2000/svg"
   xmlns:rdf="http://www.w3.org/1999/02/22-rdf-syntax-ns#"
   xmlns:cc="http://creativecommons.org/ns#"
   xmlns:dc="http://purl.org/dc/elements/1.1/">
  <defs
     id="defs2086">
    <clipPath
       clipPathUnits="userSpaceOnUse"
       id="clipPath672">
      <path
         d="m 67.188,426.148 c 0,-46.945 38.054,-85.001 84.998,-85.001 v 0 c 46.946,0 85.002,38.056 85.002,85.001 v 0 c 0,46.944 -38.056,85.001 -85.002,85.001 v 0 c -46.944,0 -84.998,-38.057 -84.998,-85.001"
         id="path670" />
    </clipPath>
  </defs>
  <sodipodi:namedview
     id="base"
     pagecolor="#ffffff"
     bordercolor="#000000"
     borderopacity="0.3"
     inkscape:pageopacity="0.0"
     inkscape:pageshadow="2"
     inkscape:zoom="0.35"
     inkscape:cx="400"
     inkscape:cy="560"
     inkscape:document-units="mm"
     inkscape:showpageshadow="2"
     inkscape:pagecheckerboard="0"
     inkscape:deskcolor="#d1d1d1"
     showgrid="false" />
  <metadata
     id="metadata2089">
    <rdf:RDF>
      <cc:Work
         rdf:about="">
        <dc:format>image/svg+xml</dc:format>
        <dc:type
           rdf:resource="http://purl.org/dc/dcmitype/StillImage" />
      </cc:Work>
    </rdf:RDF>
  </metadata>
  <g
     id="g346"
     transform="matrix(1.4150089,0,0,-1.4128901,-288.38385,1174.172)">
    <path
       d="m 208.39086,154.96988 c 0,-56.222026 -45.57954,-101.801581 -101.80276,-101.801581 -56.224445,0 -101.8003996,45.579555 -101.8003996,101.801581 0,56.22442 45.5759546,101.804 101.8003996,101.804 56.22322,0 101.80276,-45.57958 101.80276,-101.804"
       style="fill:#0a6e90;fill-opacity:1;fill-rule:nonzero;stroke:none;stroke-width:1.19767"
       id="path128"
       transform="matrix(0.70670934,0,0,-0.70776914,203.80356,831.0427)" />
    <g
       id="g666"
       transform="matrix(0.8676954,0,0,0.86899664,147.26721,356.93471)">
      <g
         id="g668"
         clip-path="url(#clipPath672)">
        <g
           id="g674"
           transform="translate(165.0034,454.3921)">
          <path
             d="m 0,0 c 4.016,11.227 21.213,15.48 21.213,15.48 0,0 7.304,-21.356 -0.566,-30.95"
             style="fill:#ed521a;fill-opacity:1;fill-rule:nonzero;stroke:none"
             id="path676" />
        </g>
        <g
           id="g678"
           transform="translate(182.6548,463.2661)">
          <path
             d="M 0,0 C 0,0 -8.287,-1.822 -12.44,-9.19 -16.598,-16.561 0.556,-19.322 0.556,-19.322 0.556,-19.322 4.573,-8.095 0,0"
             style="fill:#982508;fill-opacity:1;fill-rule:nonzero;stroke:none"
             id="path680" />
        </g>
        <g
           id="g682"
           transform="translate(136.5967,452.9014)">
          <path
             d="m 0,0 c -4.631,10.991 -22.031,14.294 -22.031,14.294 0,0 -6.123,-21.725 2.259,-30.872"
             style="fill:#ed521a;fill-opacity:1;fill-rule:nonzero;stroke:none"
             id="path684" />
        </g>
        <g
           id="g686"
           transform="translate(118.4824,460.7944)">
          <path
             d="M 0,0 C 0,0 8.371,-1.364 12.929,-8.494 17.48,-15.625 0.506,-19.324 0.506,-19.324 0.506,-19.324 -4.119,-8.334 0,0"
             style="fill:#982508;fill-opacity:1;fill-rule:nonzero;stroke:none"
             id="path688" />
        </g>
        <g
           id="g690"
           transform="translate(151.459,391.75)">
          <path
             d="M 0,0 C -26.006,0 -47.092,-22.656 -47.092,-50.604 H 47.095 C 47.095,-22.656 26.012,0 0,0"
             style="fill:#ed521a;fill-opacity:1;fill-rule:nonzero;stroke:none"
             id="path692" />
        </g>
        <g
           id="g694"
           transform="translate(112.2168,423.2041)">
          <path
             d="m 0,0 c 0,-22.264 18.047,-40.312 40.312,-40.312 22.264,0 40.312,18.048 40.312,40.312 0,22.263 -17.135,32.815 -39.401,32.815 C 18.959,32.815 0,22.263 0,0"
             style="fill:#ed521a;fill-opacity:1;fill-rule:nonzero;stroke:none"
             id="path696" />
        </g>
        <g
           id="g698"
           transform="translate(167.9561,382.8379)">
          <path
             d="m 0,0 c -2.066,0.686 -12.362,-5.234 -12.362,-5.234 -0.627,0.671 -1.536,1.095 -2.55,1.095 -1.014,0 -1.922,-0.424 -2.55,-1.095 0,0 -10.313,6.244 -12.274,5.092 -1.961,-1.151 -2.032,-13.354 0,-14.559 2.03,-1.203 12.467,4.902 12.467,4.902 0.613,-0.56 1.442,-0.906 2.357,-0.906 0.915,0 1.743,0.346 2.356,0.904 0,0 10.782,-6.33 12.468,-4.9 C 1.597,-13.27 2.067,-0.686 0,0"
             style="fill:#000000;fill-opacity:1;fill-rule:nonzero;stroke:none"
             id="path700" />
        </g>
        <g
           id="g702"
           transform="translate(154.9814,363.9023)">
          <path
             d="m 0,0 c 0,1.313 -1.064,2.375 -2.374,2.375 -1.313,0 -2.377,-1.062 -2.377,-2.375 0,-1.313 1.064,-2.375 2.377,-2.375 C -1.064,-2.375 0,-1.313 0,0"
             style="fill:#191009;fill-opacity:1;fill-rule:nonzero;stroke:none"
             id="path704" />
        </g>
        <g
           id="g706"
           transform="translate(131.9727,433.2275)">
          <path
             d="M 0,0 C 0,0 12.398,3.594 12.117,-9.012 12.117,-9.012 0,-13.413 0,0"
             style="fill:#ffffff;fill-opacity:1;fill-rule:nonzero;stroke:none"
             id="path708" />
        </g>
        <g
           id="g710"
           transform="translate(141.397,428.6133)">
          <path
             d="m 0,0 c 0,-1.661 -1.345,-3.007 -3.007,-3.007 -1.66,0 -3.006,1.346 -3.006,3.007 0,1.66 1.346,3.006 3.006,3.006 C -1.345,3.006 0,1.66 0,0"
             style="fill:#191009;fill-opacity:1;fill-rule:nonzero;stroke:none"
             id="path712" />
        </g>
        <g
           id="g714"
           transform="translate(140.5059,430.0244)">
          <path
             d="m 0,0 c 0,-0.39 -0.314,-0.706 -0.705,-0.706 -0.388,0 -0.705,0.316 -0.705,0.706 0,0.389 0.317,0.705 0.705,0.705 C -0.314,0.705 0,0.389 0,0"
             style="fill:#ffffff;fill-opacity:1;fill-rule:nonzero;stroke:none"
             id="path716" />
        </g>
        <g
           id="g718"
           transform="translate(174.5522,433.2275)">
          <path
             d="M 0,0 C 0,0 -12.399,3.594 -12.119,-9.012 -12.119,-9.012 0,-13.413 0,0"
             style="fill:#ffffff;fill-opacity:1;fill-rule:nonzero;stroke:none"
             id="path720" />
        </g>
        <g
           id="g722"
           transform="translate(165.1279,428.6133)">
          <path
             d="m 0,0 c 0,-1.661 1.345,-3.007 3.006,-3.007 1.661,0 3.006,1.346 3.006,3.007 0,1.66 -1.345,3.006 -3.006,3.006 C 1.345,3.006 0,1.66 0,0"
             style="fill:#191009;fill-opacity:1;fill-rule:nonzero;stroke:none"
             id="path724" />
        </g>
        <g
           id="g726"
           transform="translate(166.0176,430.0244)">
          <path
             d="m 0,0 c 0,-0.39 0.316,-0.706 0.706,-0.706 0.389,0 0.705,0.316 0.705,0.706 0,0.389 -0.316,0.705 -0.705,0.705 C 0.316,0.705 0,0.389 0,0"
             style="fill:#ffffff;fill-opacity:1;fill-rule:nonzero;stroke:none"
             id="path728" />
        </g>
        <g
           id="g730"
           transform="translate(168.8848,408.583)">
          <path
             d="m 0,0 c -0.18,0 -0.354,0.101 -0.432,0.278 -0.109,0.238 0,0.517 0.238,0.622 0.849,0.382 20.906,9.332 28.436,6.151 0.239,-0.101 0.35,-0.377 0.25,-0.616 C 28.388,6.196 28.116,6.086 27.87,6.184 20.722,9.216 0.397,0.134 0.193,0.042 0.127,0.012 0.063,0 0,0"
             style="fill:#191009;fill-opacity:1;fill-rule:nonzero;stroke:none"
             id="path732" />
        </g>
        <g
           id="g734"
           transform="translate(173.5083,405.1011)">
          <path
             d="M 0,0 C -0.24,0 -0.446,0.183 -0.471,0.425 -0.499,0.682 -0.306,0.916 -0.048,0.939 2.389,1.188 23.827,3.316 26.23,2.152 26.465,2.036 26.565,1.756 26.453,1.523 26.339,1.29 26.061,1.187 25.822,1.304 24.184,2.094 9.513,0.957 0.046,0.002 0.03,0 0.01,0 0,0"
             style="fill:#191009;fill-opacity:1;fill-rule:nonzero;stroke:none"
             id="path736" />
        </g>
        <g
           id="g738"
           transform="translate(193.6748,396.3379)">
          <path
             d="m 0,0 c -0.126,0 -0.255,0.055 -0.349,0.158 -2.278,2.551 -12.998,3.487 -16.93,3.632 -0.265,0.009 -0.468,0.23 -0.457,0.488 0.008,0.262 0.232,0.44 0.487,0.456 C -16.655,4.711 -2.658,4.158 0.354,0.787 0.525,0.592 0.511,0.294 0.316,0.121 0.228,0.04 0.115,0 0,0"
             style="fill:#191009;fill-opacity:1;fill-rule:nonzero;stroke:none"
             id="path740" />
        </g>
        <g
           id="g742"
           transform="translate(136.1743,408.583)">
          <path
             d="M 0,0 C 0.178,0 0.353,0.101 0.428,0.278 0.537,0.516 0.43,0.795 0.195,0.9 c -0.857,0.382 -20.909,9.332 -28.438,6.151 -0.238,-0.101 -0.353,-0.377 -0.249,-0.616 0.1,-0.239 0.374,-0.349 0.617,-0.251 7.154,3.032 27.476,-6.05 27.682,-6.142 C -0.131,0.012 -0.066,0 0,0"
             style="fill:#191009;fill-opacity:1;fill-rule:nonzero;stroke:none"
             id="path744" />
        </g>
        <g
           id="g746"
           transform="translate(131.5488,405.1011)">
          <path
             d="M 0,0 C 0.24,0 0.444,0.183 0.471,0.425 0.496,0.682 0.308,0.916 0.048,0.939 -2.389,1.188 -23.829,3.316 -26.232,2.152 -26.466,2.038 -26.564,1.756 -26.453,1.523 -26.34,1.29 -26.063,1.187 -25.824,1.304 -24.185,2.094 -9.51,0.957 -0.045,0.002 -0.03,0 -0.015,0 0,0"
             style="fill:#191009;fill-opacity:1;fill-rule:nonzero;stroke:none"
             id="path748" />
        </g>
        <g
           id="g750"
           transform="translate(111.3774,396.3379)">
          <path
             d="M 0,0 C 0.132,0 0.261,0.055 0.354,0.158 2.634,2.709 13.353,3.645 17.286,3.79 17.548,3.799 17.75,4.02 17.741,4.278 17.73,4.54 17.509,4.718 17.254,4.734 16.656,4.711 2.66,4.158 -0.349,0.787 -0.522,0.592 -0.506,0.294 -0.311,0.121 -0.222,0.04 -0.109,0 0,0"
             style="fill:#191009;fill-opacity:1;fill-rule:nonzero;stroke:none"
             id="path752" />
        </g>
        <g
           id="g754"
           transform="translate(164.4854,412.8477)">
          <path
             d="m 0,0 c -5.469,0 -10.113,-2.919 -11.888,-7.002 -2.17,3.241 -6.296,5.433 -11.034,5.433 -6.995,0 -12.667,-4.77 -12.667,-10.657 0,-5.885 5.672,-10.655 12.667,-10.655 5.468,0 10.111,2.92 11.888,7.002 2.17,-3.242 6.295,-5.434 11.034,-5.434 6.994,0 12.668,4.772 12.668,10.657 C 12.668,-4.771 6.994,0 0,0"
             style="fill:#ffffff;fill-opacity:1;fill-rule:nonzero;stroke:none"
             id="path756" />
        </g>
        <g
           id="g758"
           transform="translate(156.2803,415.1548)">
          <path
             d="m 0,0 c 3.544,0 4.654,-2.284 2.464,-5.071 l -1.4,-1.786 c -2.188,-2.789 -5.77,-2.789 -7.958,0 l -1.4,1.786 C -10.483,-2.284 -9.373,0 -5.83,0 Z"
             style="fill:#191009;fill-opacity:1;fill-rule:nonzero;stroke:none"
             id="path760" />
        </g>
        <g
           id="g762"
           transform="translate(184.9619,433.3735)">
          <path
             d="m 0,0 c 0,0 -2.083,-0.721 -2.234,-0.721 -0.154,0 -0.704,0.506 -0.629,0.842 0.077,0.337 0.689,0.704 0.858,0.704 C -1.837,0.825 0,0.198 0,0.198 Z m -5.48,-6.861 c -0.43,-2.142 -1.991,-4.348 -2.85,-5.297 -2.389,-2.205 -5.632,-2.236 -8.083,-2.236 -6.187,0.276 -7.441,2.389 -8.943,4.594 -1.805,2.848 -1.713,6.431 -1.439,8.819 0.275,2.388 2.175,3.888 3.4,4.471 1.224,0.583 4.278,0.909 4.278,0.909 3.368,0.285 7.532,-0.103 9.451,-0.552 1.919,-0.45 2.675,-1.042 3.447,-1.858 0.778,-0.817 1.106,-2.71 1.106,-2.71 0.239,-0.979 0.06,-3.996 -0.367,-6.14 M -39.355,-9.8 c -1.501,-2.205 -2.755,-4.318 -8.941,-4.594 -2.452,0 -5.696,0.031 -8.085,2.236 -0.859,0.949 -2.418,3.155 -2.848,5.297 -0.429,2.144 -0.606,5.161 -0.368,6.14 0,0 0.327,1.893 1.102,2.71 0.776,0.816 1.532,1.408 3.451,1.858 1.919,0.449 6.083,0.837 9.451,0.552 0,0 3.054,-0.326 4.278,-0.909 1.225,-0.583 3.126,-2.083 3.398,-4.471 0.279,-2.388 0.368,-5.971 -1.438,-8.819 m -23.121,9.079 C -62.628,-0.721 -64.71,0 -64.71,0 v 0.198 c 0,0 1.836,0.627 2.006,0.627 0.167,0 0.779,-0.367 0.856,-0.704 0.076,-0.336 -0.475,-0.842 -0.628,-0.842 M 2.031,1.867 c -0.04,0.408 -1.509,0.818 -1.509,0.818 0,0 -1.839,0.447 -3.757,1.204 -1.92,0.755 -5.839,2.183 -7.636,2.427 -1.796,0.246 -6.124,0.491 -8.572,0.165 -2.453,-0.328 -4.904,-0.857 -5.719,-1.306 -0.815,-0.449 -1.633,-0.981 -1.999,-1.267 -0.368,-0.287 -0.735,-0.572 -1.063,-0.53 -0.328,0.04 -1.06,0.53 -1.06,0.53 0,0 -1.942,0 -3.071,-0.011 -1.129,0.011 -3.071,0.011 -3.071,0.011 0,0 -0.733,-0.49 -1.06,-0.53 -0.329,-0.042 -0.693,0.243 -1.063,0.53 -0.368,0.286 -1.184,0.818 -2,1.267 -0.816,0.449 -3.265,0.978 -5.718,1.306 -2.449,0.326 -6.777,0.081 -8.573,-0.165 -1.795,-0.244 -5.718,-1.672 -7.635,-2.427 -1.919,-0.757 -3.755,-1.204 -3.755,-1.204 0,0 -1.472,-0.41 -1.511,-0.818 -0.041,-0.409 0.326,-3.796 0.326,-3.796 0,0 1.552,-0.409 2.449,-0.737 0.898,-0.326 1.308,-0.897 1.961,-2.164 0.652,-1.592 2.447,-6.043 3.593,-7.717 1.141,-1.673 3.714,-2.734 7.062,-3.511 6.169,-0.489 8.371,0.899 10.371,1.961 2.001,1.06 3.187,3.593 3.88,4.816 0.694,1.226 1.877,6.084 1.96,6.494 0.081,0.408 -0.184,0.836 -0.408,1.162 -0.225,0.327 -0.431,1 -0.347,1.471 0.081,0.468 0.326,0.979 1.345,1.326 0.648,0.222 1.591,0.317 2.194,0.359 0.605,-0.042 1.544,-0.137 2.193,-0.359 1.02,-0.347 1.264,-0.858 1.345,-1.326 0.084,-0.471 -0.121,-1.144 -0.346,-1.471 -0.224,-0.326 -0.489,-0.754 -0.408,-1.162 0.083,-0.41 1.267,-5.268 1.959,-6.494 0.695,-1.223 1.88,-3.756 3.881,-4.816 2,-1.062 4.205,-2.45 10.37,-1.961 3.348,0.777 5.922,1.838 7.065,3.511 1.141,1.674 2.938,6.125 3.59,7.717 0.655,1.267 1.062,1.838 1.961,2.164 0.898,0.328 2.452,0.737 2.452,0.737 0,0 0.365,3.387 0.324,3.796"
             style="fill:#191009;fill-opacity:1;fill-rule:nonzero;stroke:none"
             id="path764" />
        </g>
      </g>
    </g>
  </g>
</svg>
