<svg id="visual" viewBox="0 0 900 600" width="900" height="600" xmlns="http://www.w3.org/2000/svg" xmlns:xlink="http://www.w3.org/1999/xlink" version="1.1"><rect x="0" y="0" width="900" height="600" fill="#002233"></rect><path d="M587 0L578.3 14.3C569.7 28.7 552.3 57.3 572.3 85.8C592.3 114.3 649.7 142.7 644.7 171.2C639.7 199.7 572.3 228.3 561.7 257C551 285.7 597 314.3 607.8 343C618.7 371.7 594.3 400.3 604.2 428.8C614 457.3 658 485.7 667 514.2C676 542.7 650 571.3 637 585.7L624 600L0 600L0 585.7C0 571.3 0 542.7 0 514.2C0 485.7 0 457.3 0 428.8C0 400.3 0 371.7 0 343C0 314.3 0 285.7 0 257C0 228.3 0 199.7 0 171.2C0 142.7 0 114.3 0 85.8C0 57.3 0 28.7 0 14.3L0 0Z" fill="#002233"></path><path d="M561 0L562.3 14.3C563.7 28.7 566.3 57.3 569 85.8C571.7 114.3 574.3 142.7 566.7 171.2C559 199.7 541 228.3 517 257C493 285.7 463 314.3 452 343C441 371.7 449 400.3 460.2 428.8C471.3 457.3 485.7 485.7 480 514.2C474.3 542.7 448.7 571.3 435.8 585.7L423 600L0 600L0 585.7C0 571.3 0 542.7 0 514.2C0 485.7 0 457.3 0 428.8C0 400.3 0 371.7 0 343C0 314.3 0 285.7 0 257C0 228.3 0 199.7 0 171.2C0 142.7 0 114.3 0 85.8C0 57.3 0 28.7 0 14.3L0 0Z" fill="#003759"></path><path d="M343 0L349.8 14.3C356.7 28.7 370.3 57.3 369.2 85.8C368 114.3 352 142.7 354.5 171.2C357 199.7 378 228.3 393.7 257C409.3 285.7 419.7 314.3 406.8 343C394 371.7 358 400.3 357.7 428.8C357.3 457.3 392.7 485.7 406.7 514.2C420.7 542.7 413.3 571.3 409.7 585.7L406 600L0 600L0 585.7C0 571.3 0 542.7 0 514.2C0 485.7 0 457.3 0 428.8C0 400.3 0 371.7 0 343C0 314.3 0 285.7 0 257C0 228.3 0 199.7 0 171.2C0 142.7 0 114.3 0 85.8C0 57.3 0 28.7 0 14.3L0 0Z" fill="#004c82"></path><path d="M318 0L300.3 14.3C282.7 28.7 247.3 57.3 240.2 85.8C233 114.3 254 142.7 255.7 171.2C257.3 199.7 239.7 228.3 237.8 257C236 285.7 250 314.3 265.5 343C281 371.7 298 400.3 302.3 428.8C306.7 457.3 298.3 485.7 289.5 514.2C280.7 542.7 271.3 571.3 266.7 585.7L262 600L0 600L0 585.7C0 571.3 0 542.7 0 514.2C0 485.7 0 457.3 0 428.8C0 400.3 0 371.7 0 343C0 314.3 0 285.7 0 257C0 228.3 0 199.7 0 171.2C0 142.7 0 114.3 0 85.8C0 57.3 0 28.7 0 14.3L0 0Z" fill="#0060ad"></path><path d="M109 0L110 14.3C111 28.7 113 57.3 127.7 85.8C142.3 114.3 169.7 142.7 181.7 171.2C193.7 199.7 190.3 228.3 190.2 257C190 285.7 193 314.3 188.7 343C184.3 371.7 172.7 400.3 160.7 428.8C148.7 457.3 136.3 485.7 136.8 514.2C137.3 542.7 150.7 571.3 157.3 585.7L164 600L0 600L0 585.7C0 571.3 0 542.7 0 514.2C0 485.7 0 457.3 0 428.8C0 400.3 0 371.7 0 343C0 314.3 0 285.7 0 257C0 228.3 0 199.7 0 171.2C0 142.7 0 114.3 0 85.8C0 57.3 0 28.7 0 14.3L0 0Z" fill="#0074d9"></path></svg>