<svg id="visual" viewBox="0 0 960 540" width="960" height="540" xmlns="http://www.w3.org/2000/svg" xmlns:xlink="http://www.w3.org/1999/xlink" version="1.1"><rect x="0" y="0" width="960" height="540" fill="#002233"></rect><path d="M0 329L22.8 333.5C45.7 338 91.3 347 137 351.2C182.7 355.3 228.3 354.7 274 351C319.7 347.3 365.3 340.7 411.2 341C457 341.3 503 348.7 548.8 354.7C594.7 360.7 640.3 365.3 686 367.2C731.7 369 777.3 368 823 373.2C868.7 378.3 914.3 389.7 937.2 395.3L960 401L960 541L937.2 541C914.3 541 868.7 541 823 541C777.3 541 731.7 541 686 541C640.3 541 594.7 541 548.8 541C503 541 457 541 411.2 541C365.3 541 319.7 541 274 541C228.3 541 182.7 541 137 541C91.3 541 45.7 541 22.8 541L0 541Z" fill="#007bff"></path><path d="M0 378L22.8 377.8C45.7 377.7 91.3 377.3 137 379C182.7 380.7 228.3 384.3 274 392C319.7 399.7 365.3 411.3 411.2 408.8C457 406.3 503 389.7 548.8 383.8C594.7 378 640.3 383 686 388.3C731.7 393.7 777.3 399.3 823 395.3C868.7 391.3 914.3 377.7 937.2 370.8L960 364L960 541L937.2 541C914.3 541 868.7 541 823 541C777.3 541 731.7 541 686 541C640.3 541 594.7 541 548.8 541C503 541 457 541 411.2 541C365.3 541 319.7 541 274 541C228.3 541 182.7 541 137 541C91.3 541 45.7 541 22.8 541L0 541Z" fill="#006aff"></path><path d="M0 404L22.8 404.8C45.7 405.7 91.3 407.3 137 413.2C182.7 419 228.3 429 274 437.2C319.7 445.3 365.3 451.7 411.2 449.3C457 447 503 436 548.8 429.3C594.7 422.7 640.3 420.3 686 420.3C731.7 420.3 777.3 422.7 823 422.2C868.7 421.7 914.3 418.3 937.2 416.7L960 415L960 541L937.2 541C914.3 541 868.7 541 823 541C777.3 541 731.7 541 686 541C640.3 541 594.7 541 548.8 541C503 541 457 541 411.2 541C365.3 541 319.7 541 274 541C228.3 541 182.7 541 137 541C91.3 541 45.7 541 22.8 541L0 541Z" fill="#2557ff"></path><path d="M0 471L22.8 465.5C45.7 460 91.3 449 137 446.8C182.7 444.7 228.3 451.3 274 455C319.7 458.7 365.3 459.3 411.2 463.5C457 467.7 503 475.3 548.8 474.5C594.7 473.7 640.3 464.3 686 457.8C731.7 451.3 777.3 447.7 823 451C868.7 454.3 914.3 464.7 937.2 469.8L960 475L960 541L937.2 541C914.3 541 868.7 541 823 541C777.3 541 731.7 541 686 541C640.3 541 594.7 541 548.8 541C503 541 457 541 411.2 541C365.3 541 319.7 541 274 541C228.3 541 182.7 541 137 541C91.3 541 45.7 541 22.8 541L0 541Z" fill="#463eff"></path><path d="M0 490L22.8 487C45.7 484 91.3 478 137 476.5C182.7 475 228.3 478 274 479.3C319.7 480.7 365.3 480.3 411.2 485.8C457 491.3 503 502.7 548.8 506.7C594.7 510.7 640.3 507.3 686 500.3C731.7 493.3 777.3 482.7 823 482.5C868.7 482.3 914.3 492.7 937.2 497.8L960 503L960 541L937.2 541C914.3 541 868.7 541 823 541C777.3 541 731.7 541 686 541C640.3 541 594.7 541 548.8 541C503 541 457 541 411.2 541C365.3 541 319.7 541 274 541C228.3 541 182.7 541 137 541C91.3 541 45.7 541 22.8 541L0 541Z" fill="#6600ff"></path></svg>