<svg id="visual" viewBox="0 0 960 540" width="960" height="540" xmlns="http://www.w3.org/2000/svg" xmlns:xlink="http://www.w3.org/1999/xlink" version="1.1"><rect x="0" y="0" width="960" height="540" fill="#002233"></rect><defs><linearGradient id="grad1_0" x1="43.8%" y1="0%" x2="100%" y2="100%"><stop offset="14.444444444444446%" stop-color="#007bff" stop-opacity="1"></stop><stop offset="85.55555555555554%" stop-color="#007bff" stop-opacity="1"></stop></linearGradient></defs><defs><linearGradient id="grad1_1" x1="43.8%" y1="0%" x2="100%" y2="100%"><stop offset="14.444444444444446%" stop-color="#007bff" stop-opacity="1"></stop><stop offset="85.55555555555554%" stop-color="#0070e1" stop-opacity="1"></stop></linearGradient></defs><defs><linearGradient id="grad1_2" x1="43.8%" y1="0%" x2="100%" y2="100%"><stop offset="14.444444444444446%" stop-color="#0064c3" stop-opacity="1"></stop><stop offset="85.55555555555554%" stop-color="#0070e1" stop-opacity="1"></stop></linearGradient></defs><defs><linearGradient id="grad1_3" x1="43.8%" y1="0%" x2="100%" y2="100%"><stop offset="14.444444444444446%" stop-color="#0064c3" stop-opacity="1"></stop><stop offset="85.55555555555554%" stop-color="#0058a4" stop-opacity="1"></stop></linearGradient></defs><defs><linearGradient id="grad1_4" x1="43.8%" y1="0%" x2="100%" y2="100%"><stop offset="14.444444444444446%" stop-color="#004b86" stop-opacity="1"></stop><stop offset="85.55555555555554%" stop-color="#0058a4" stop-opacity="1"></stop></linearGradient></defs><defs><linearGradient id="grad1_5" x1="43.8%" y1="0%" x2="100%" y2="100%"><stop offset="14.444444444444446%" stop-color="#004b86" stop-opacity="1"></stop><stop offset="85.55555555555554%" stop-color="#003d69" stop-opacity="1"></stop></linearGradient></defs><defs><linearGradient id="grad1_6" x1="43.8%" y1="0%" x2="100%" y2="100%"><stop offset="14.444444444444446%" stop-color="#00304d" stop-opacity="1"></stop><stop offset="85.55555555555554%" stop-color="#003d69" stop-opacity="1"></stop></linearGradient></defs><defs><linearGradient id="grad1_7" x1="43.8%" y1="0%" x2="100%" y2="100%"><stop offset="14.444444444444446%" stop-color="#00304d" stop-opacity="1"></stop><stop offset="85.55555555555554%" stop-color="#002233" stop-opacity="1"></stop></linearGradient></defs><defs><linearGradient id="grad2_0" x1="0%" y1="0%" x2="56.3%" y2="100%"><stop offset="14.444444444444446%" stop-color="#007bff" stop-opacity="1"></stop><stop offset="85.55555555555554%" stop-color="#007bff" stop-opacity="1"></stop></linearGradient></defs><defs><linearGradient id="grad2_1" x1="0%" y1="0%" x2="56.3%" y2="100%"><stop offset="14.444444444444446%" stop-color="#0070e1" stop-opacity="1"></stop><stop offset="85.55555555555554%" stop-color="#007bff" stop-opacity="1"></stop></linearGradient></defs><defs><linearGradient id="grad2_2" x1="0%" y1="0%" x2="56.3%" y2="100%"><stop offset="14.444444444444446%" stop-color="#0070e1" stop-opacity="1"></stop><stop offset="85.55555555555554%" stop-color="#0064c3" stop-opacity="1"></stop></linearGradient></defs><defs><linearGradient id="grad2_3" x1="0%" y1="0%" x2="56.3%" y2="100%"><stop offset="14.444444444444446%" stop-color="#0058a4" stop-opacity="1"></stop><stop offset="85.55555555555554%" stop-color="#0064c3" stop-opacity="1"></stop></linearGradient></defs><defs><linearGradient id="grad2_4" x1="0%" y1="0%" x2="56.3%" y2="100%"><stop offset="14.444444444444446%" stop-color="#0058a4" stop-opacity="1"></stop><stop offset="85.55555555555554%" stop-color="#004b86" stop-opacity="1"></stop></linearGradient></defs><defs><linearGradient id="grad2_5" x1="0%" y1="0%" x2="56.3%" y2="100%"><stop offset="14.444444444444446%" stop-color="#003d69" stop-opacity="1"></stop><stop offset="85.55555555555554%" stop-color="#004b86" stop-opacity="1"></stop></linearGradient></defs><defs><linearGradient id="grad2_6" x1="0%" y1="0%" x2="56.3%" y2="100%"><stop offset="14.444444444444446%" stop-color="#003d69" stop-opacity="1"></stop><stop offset="85.55555555555554%" stop-color="#00304d" stop-opacity="1"></stop></linearGradient></defs><defs><linearGradient id="grad2_7" x1="0%" y1="0%" x2="56.3%" y2="100%"><stop offset="14.444444444444446%" stop-color="#002233" stop-opacity="1"></stop><stop offset="85.55555555555554%" stop-color="#00304d" stop-opacity="1"></stop></linearGradient></defs><g transform="translate(960, 0)"><path d="M0 405C-60.6 377.4 -121.3 349.9 -184.5 319.6C-247.7 289.3 -313.6 256.2 -350.7 202.5C-387.9 148.8 -396.5 74.4 -405 0L0 0Z" fill="#002940"></path><path d="M0 354.4C-53.1 330.3 -106.1 306.1 -161.4 279.6C-216.8 253.1 -274.4 224.2 -306.9 177.2C-339.4 130.2 -346.9 65.1 -354.4 0L0 0Z" fill="#00365b"></path><path d="M0 303.8C-45.5 283.1 -91 262.4 -138.4 239.7C-185.8 216.9 -235.2 192.2 -263.1 151.9C-290.9 111.6 -297.3 55.8 -303.7 0L0 0Z" fill="#004478"></path><path d="M0 253.1C-37.9 235.9 -75.8 218.7 -115.3 199.7C-154.8 180.8 -196 160.1 -219.2 126.6C-242.5 93 -247.8 46.5 -253.1 0L0 0Z" fill="#005195"></path><path d="M0 202.5C-30.3 188.7 -60.6 174.9 -92.2 159.8C-123.9 144.6 -156.8 128.1 -175.4 101.3C-194 74.4 -198.2 37.2 -202.5 0L0 0Z" fill="#005eb4"></path><path d="M0 151.9C-22.7 141.5 -45.5 131.2 -69.2 119.8C-92.9 108.5 -117.6 96.1 -131.5 75.9C-145.5 55.8 -148.7 27.9 -151.9 0L0 0Z" fill="#006ad2"></path><path d="M0 101.3C-15.2 94.4 -30.3 87.5 -46.1 79.9C-61.9 72.3 -78.4 64.1 -87.7 50.6C-97 37.2 -99.1 18.6 -101.2 0L0 0Z" fill="#0076f0"></path><path d="M0 50.6C-7.6 47.2 -15.2 43.7 -23.1 39.9C-31 36.2 -39.2 32 -43.8 25.3C-48.5 18.6 -49.6 9.3 -50.6 0L0 0Z" fill="#007bff"></path></g><g transform="translate(0, 540)"><path d="M0 -405C70 -393.6 139.9 -382.2 202 -349.9C264.1 -317.5 318.2 -264.3 350.7 -202.5C383.3 -140.7 394.1 -70.4 405 0L0 0Z" fill="#002940"></path><path d="M0 -354.4C61.2 -344.4 122.4 -334.4 176.7 -306.1C231.1 -277.9 278.4 -231.3 306.9 -177.2C335.3 -123.1 344.9 -61.6 354.4 0L0 0Z" fill="#00365b"></path><path d="M0 -303.7C52.5 -295.2 105 -286.6 151.5 -262.4C198 -238.2 238.7 -198.2 263.1 -151.9C287.4 -105.5 295.6 -52.8 303.8 0L0 0Z" fill="#004478"></path><path d="M0 -253.1C43.7 -246 87.5 -238.9 126.2 -218.7C165 -198.5 198.9 -165.2 219.2 -126.6C239.5 -87.9 246.3 -44 253.1 0L0 0Z" fill="#005195"></path><path d="M0 -202.5C35 -196.8 70 -191.1 101 -174.9C132 -158.8 159.1 -132.1 175.4 -101.3C191.6 -70.4 197.1 -35.2 202.5 0L0 0Z" fill="#005eb4"></path><path d="M0 -151.9C26.2 -147.6 52.5 -143.3 75.7 -131.2C99 -119.1 119.3 -99.1 131.5 -75.9C143.7 -52.8 147.8 -26.4 151.9 0L0 0Z" fill="#006ad2"></path><path d="M0 -101.2C17.5 -98.4 35 -95.5 50.5 -87.5C66 -79.4 79.6 -66.1 87.7 -50.6C95.8 -35.2 98.5 -17.6 101.3 0L0 0Z" fill="#0076f0"></path><path d="M0 -50.6C8.7 -49.2 17.5 -47.8 25.2 -43.7C33 -39.7 39.8 -33 43.8 -25.3C47.9 -17.6 49.3 -8.8 50.6 0L0 0Z" fill="#007bff"></path></g></svg>