<svg id="visual" viewBox="0 0 960 540" width="960" height="540" xmlns="http://www.w3.org/2000/svg" xmlns:xlink="http://www.w3.org/1999/xlink" version="1.1"><rect x="0" y="0" width="960" height="540" fill="#002233"></rect><path d="M212 0L214 12.8C216 25.7 220 51.3 222.7 77C225.3 102.7 226.7 128.3 238.2 154C249.7 179.7 271.3 205.3 280.2 231.2C289 257 285 283 272.8 308.8C260.7 334.7 240.3 360.3 234 386C227.7 411.7 235.3 437.3 246 463C256.7 488.7 270.3 514.3 277.2 527.2L284 540L0 540L0 527.2C0 514.3 0 488.7 0 463C0 437.3 0 411.7 0 386C0 360.3 0 334.7 0 308.8C0 283 0 257 0 231.2C0 205.3 0 179.7 0 154C0 128.3 0 102.7 0 77C0 51.3 0 25.7 0 12.8L0 0Z" fill="#002233"></path><path d="M241 0L236.2 12.8C231.3 25.7 221.7 51.3 213.2 77C204.7 102.7 197.3 128.3 191.3 154C185.3 179.7 180.7 205.3 186.8 231.2C193 257 210 283 209.8 308.8C209.7 334.7 192.3 360.3 189.8 386C187.3 411.7 199.7 437.3 200.8 463C202 488.7 192 514.3 187 527.2L182 540L0 540L0 527.2C0 514.3 0 488.7 0 463C0 437.3 0 411.7 0 386C0 360.3 0 334.7 0 308.8C0 283 0 257 0 231.2C0 205.3 0 179.7 0 154C0 128.3 0 102.7 0 77C0 51.3 0 25.7 0 12.8L0 0Z" fill="#003759"></path><path d="M187 0L183.2 12.8C179.3 25.7 171.7 51.3 161.7 77C151.7 102.7 139.3 128.3 142.3 154C145.3 179.7 163.7 205.3 175.3 231.2C187 257 192 283 191 308.8C190 334.7 183 360.3 182.5 386C182 411.7 188 437.3 183.7 463C179.3 488.7 164.7 514.3 157.3 527.2L150 540L0 540L0 527.2C0 514.3 0 488.7 0 463C0 437.3 0 411.7 0 386C0 360.3 0 334.7 0 308.8C0 283 0 257 0 231.2C0 205.3 0 179.7 0 154C0 128.3 0 102.7 0 77C0 51.3 0 25.7 0 12.8L0 0Z" fill="#004c82"></path><path d="M118 0L119.8 12.8C121.7 25.7 125.3 51.3 124.8 77C124.3 102.7 119.7 128.3 111.8 154C104 179.7 93 205.3 88.5 231.2C84 257 86 283 89.8 308.8C93.7 334.7 99.3 360.3 103 386C106.7 411.7 108.3 437.3 109.3 463C110.3 488.7 110.7 514.3 110.8 527.2L111 540L0 540L0 527.2C0 514.3 0 488.7 0 463C0 437.3 0 411.7 0 386C0 360.3 0 334.7 0 308.8C0 283 0 257 0 231.2C0 205.3 0 179.7 0 154C0 128.3 0 102.7 0 77C0 51.3 0 25.7 0 12.8L0 0Z" fill="#0060ad"></path><path d="M87 0L86 12.8C85 25.7 83 51.3 76.7 77C70.3 102.7 59.7 128.3 54.8 154C50 179.7 51 205.3 50 231.2C49 257 46 283 48.5 308.8C51 334.7 59 360.3 59.3 386C59.7 411.7 52.3 437.3 49.5 463C46.7 488.7 48.3 514.3 49.2 527.2L50 540L0 540L0 527.2C0 514.3 0 488.7 0 463C0 437.3 0 411.7 0 386C0 360.3 0 334.7 0 308.8C0 283 0 257 0 231.2C0 205.3 0 179.7 0 154C0 128.3 0 102.7 0 77C0 51.3 0 25.7 0 12.8L0 0Z" fill="#0074d9"></path></svg>